<svg width="164.8mm" height="256mm" version="1.1" viewBox="0 0 164.8 256" xmlns="http://www.w3.org/2000/svg">
  <path d="m85.933-2.8944e-7c-28.901 6.7553e-5 -47.567 24.451-47.567 54.615 0.03377 5.101 0.75218 10.167 2.1304 15.051 0.43342 1.5358-0.09525 3.6379-1.2259 4.7643-18.48 18.408-34.058 46.044-34.134 75.338-1.885e-4 53.845 35.633 97.498 79.583 97.498 43.953-5e-4 79.583-43.653 79.583-97.498-6e-3 -28.269-14.786-56.667-32.13-75.136-1.196-1.2738-1.7054-3.5924-1.1906-5.262 1.6265-5.275 2.4762-9.1964 2.5142-14.75 9e-5 -30.163-18.666-54.615-47.567-54.615z" style="fill-rule:evenodd;fill:#0a0a0a;paint-order:stroke markers fill;stroke-width:0"/>
  <path d="m84.715 93.53c-0.6049 0.03818-1.2092 0.08693-1.8128 0.14624-14.104 0.10266-28.646 4.7561-37.044 16.533-12.543 12.526-19.73 30.507-19.747 49.399-8e-5 36.494 26.238 66.079 58.604 66.079 32.366-2.6e-4 58.603-29.585 58.603-66.079-0.0557-21.186-9.1172-41.056-24.366-53.433-2.007-2.1397-8.2021-8.6776-23.81-11.461-3.4371-0.74507-6.9264-1.1415-10.426-1.1844z" style="fill-rule:evenodd;fill:#fff;paint-order:stroke markers fill;stroke-width:0"/>
  <path d="m79.22 53.825a12.921 17.768 0 0 1-12.921 17.768 12.921 17.768 0 0 1-12.921-17.768 12.921 17.768 0 0 1 12.921-17.768 12.921 17.768 0 0 1 12.921 17.768z" style="fill-rule:evenodd;fill:#fff;paint-order:stroke markers fill;stroke-width:0"/>
  <path d="m47.339 108.25c-19.843 24.051-2.4424 64.534 3.5924 74.579 0.78595 1.3083 2.4892 3.1262 3.5283 4.2515 1.696 1.8368 2.9869 3.5446 3.1934 5.8147 0.5821 6.5318-5.878 12.445-14.428 13.207-8.5508 0.76199-15.955-3.9154-16.536-10.447-2.9948-21.004-7.6023-42.189-11.586-63.124z" style="fill-rule:evenodd;fill:#0a0a0a;paint-order:stroke markers fill;stroke-width:3.5555"/>
  <path d="m71.646 55.329a7.7206 9.4446 0 0 1-7.7206 9.4446 7.7206 9.4446 0 0 1-7.7206-9.4446 7.7206 9.4446 0 0 1 7.7206-9.4446 7.7206 9.4446 0 0 1 7.7206 9.4446z" style="fill-rule:evenodd;fill:#0a0a0a;paint-order:stroke markers fill;stroke-width:0"/>
  <path d="m116.06 53.825a12.921 17.768 0 0 1-12.921 17.768 12.921 17.768 0 0 1-12.921-17.768 12.921 17.768 0 0 1 12.921-17.768 12.921 17.768 0 0 1 12.921 17.768z" style="fill-rule:evenodd;fill:#fff;paint-order:stroke markers fill;stroke-width:0"/>
  <path d="m108.92 53.935a8.1593 9.9813 0 0 1-8.1593 9.9813 8.1593 9.9813 0 0 1-8.1593-9.9813 8.1593 9.9813 0 0 1 8.1593-9.9813 8.1593 9.9813 0 0 1 8.1593 9.9813z" style="fill-rule:evenodd;fill:#0a0a0a;paint-order:stroke markers fill;stroke-width:0"/>
  <path d="m164.15 208.08c-4.6044 13.318-18.918 36.613-31.133 43.515-5.7604 3.2549-15.724 5.5135-19.968 3.841-5.516-2.1751-12.691-10.095-15.608-16.007-6.1999-12.568-1.0529-36.714 3.555-50.04 3.8729-11.202 12.487 3.174 20.174-1.4492 5.7614-3.4652 10.522-6.5354 16.154-4.588 6.1334 2.1207 7.7798 8.1223 12.73 13.413 5.4464 5.8204 17.708 0.86059 14.094 11.316z" style="fill-rule:evenodd;fill:#ff9a00;paint-order:stroke markers fill;stroke-width:0"/>
  <path d="m34.304 183.64c12.143 7.1493 32.145 25.791 36.494 39.132 2.0504 6.291 2.2926 16.505-0.18694 20.333-3.2239 4.9766-12.407 10.443-18.78 12.131-13.546 3.59-36.193-6.2338-48.348-13.388-10.214-6.0134 5.583-11.612 2.5724-20.062-2.2562-6.334-4.3233-11.608-1.3001-16.743 3.2927-5.593 9.5018-6.0188 15.667-9.8238 6.7828-4.187 4.3484-17.188 13.881-11.575z" style="fill-rule:evenodd;fill:#ff9a00;paint-order:stroke markers fill;stroke-width:0"/>
  <path d="m117.17 104.35c24.593 24.926 4.4109 74.603 1.7954 76.918-2.3115 2.9365-4.3803 5.1694-4.386 8.2498 0 6.5574 6.9588 11.874 15.544 11.874 8.5843 0 15.544-5.316 15.544-11.874 1.1185-21.188 3.8272-42.697 5.937-63.904z" style="fill-rule:evenodd;fill:#0a0a0a;paint-order:stroke markers fill;stroke-width:3.5555"/>
  <path d="m49.082 74.99c-1.7577 10.865 20.478 43.791 69.146 7.8206 9.1413-6.7566-11.569-23.302-31.436-23.302-14.351 0-35.979 4.7722-37.708 15.482z" style="fill-rule:evenodd;fill:#ff9a00;paint-order:stroke markers fill;stroke-width:0"/>
  <path d="m55.299 78.265a2.2688 2.2688 0 0 1 3.1843 0.40837c4.8841 6.3248 10.294 9.1365 15.862 10.042 5.5677 0.90542 11.365-0.18658 16.651-2.1361 10.571-3.8987 18.811-11.096 18.811-11.096a2.2688 2.2688 0 0 1 3.2016 0.20654 2.2688 2.2688 0 0 1-0.20653 3.2016s-8.6887 7.6857-20.234 11.944c-5.7736 2.1293-12.331 3.433-18.95 2.3564-6.6196-1.0766-13.228-4.6262-18.724-11.744a2.2688 2.2688 0 0 1 0.40837-3.1843z" style="fill-rule:evenodd;fill:#0a0a0a;paint-order:stroke markers fill;stroke-linecap:round;stroke-width:1.632"/>
</svg>
